<mxfile host="app.diagrams.net" modified="2020-12-25T08:10:38.627Z" agent="5.0 (Macintosh; Intel Mac OS X 10_14_5) AppleWebKit/605.1.15 (KHTML, like Gecko) Version/12.1.1 Safari/605.1.15" etag="SVKoCHDBdE0XE09l7V-G" version="14.1.2" type="github">
  <diagram id="YbkePYE8K5qenwGm4Y6w" name="Page-1">
    <mxGraphModel dx="1185" dy="738" grid="1" gridSize="10" guides="1" tooltips="1" connect="1" arrows="1" fold="1" page="1" pageScale="1" pageWidth="827" pageHeight="1169" math="0" shadow="0">
      <root>
        <mxCell id="0" />
        <mxCell id="1" parent="0" />
        <mxCell id="EDOhC-vxZ0K7PfXzQvtV-1" value="事务实现" style="rounded=1;whiteSpace=wrap;html=1;" vertex="1" parent="1">
          <mxGeometry x="170" y="340" width="100" height="60" as="geometry" />
        </mxCell>
        <mxCell id="EDOhC-vxZ0K7PfXzQvtV-2" value="" style="endArrow=none;html=1;" edge="1" parent="1">
          <mxGeometry width="50" height="50" relative="1" as="geometry">
            <mxPoint x="270" y="369.5" as="sourcePoint" />
            <mxPoint x="330" y="370" as="targetPoint" />
          </mxGeometry>
        </mxCell>
        <mxCell id="EDOhC-vxZ0K7PfXzQvtV-3" value="" style="endArrow=none;html=1;" edge="1" parent="1">
          <mxGeometry width="50" height="50" relative="1" as="geometry">
            <mxPoint x="330" y="480" as="sourcePoint" />
            <mxPoint x="330" y="290" as="targetPoint" />
          </mxGeometry>
        </mxCell>
        <mxCell id="EDOhC-vxZ0K7PfXzQvtV-7" value="Redo Log" style="text;html=1;align=center;verticalAlign=middle;resizable=0;points=[];autosize=1;" vertex="1" parent="1">
          <mxGeometry x="370" y="270" width="70" height="20" as="geometry" />
        </mxCell>
        <mxCell id="EDOhC-vxZ0K7PfXzQvtV-8" value="" style="endArrow=none;html=1;" edge="1" parent="1">
          <mxGeometry width="50" height="50" relative="1" as="geometry">
            <mxPoint x="330" y="380" as="sourcePoint" />
            <mxPoint x="410" y="380" as="targetPoint" />
          </mxGeometry>
        </mxCell>
        <mxCell id="EDOhC-vxZ0K7PfXzQvtV-10" value="持久性" style="ellipse;whiteSpace=wrap;html=1;" vertex="1" parent="1">
          <mxGeometry x="481.5" y="270" width="60" height="40" as="geometry" />
        </mxCell>
        <mxCell id="EDOhC-vxZ0K7PfXzQvtV-11" value="原子性" style="ellipse;whiteSpace=wrap;html=1;" vertex="1" parent="1">
          <mxGeometry x="481.5" y="330" width="60" height="40" as="geometry" />
        </mxCell>
        <mxCell id="EDOhC-vxZ0K7PfXzQvtV-12" value="Undo Log" style="text;html=1;align=center;verticalAlign=middle;resizable=0;points=[];autosize=1;" vertex="1" parent="1">
          <mxGeometry x="330" y="360" width="70" height="20" as="geometry" />
        </mxCell>
        <mxCell id="EDOhC-vxZ0K7PfXzQvtV-13" value="锁" style="text;html=1;align=center;verticalAlign=middle;resizable=0;points=[];autosize=1;strokeWidth=5;" vertex="1" parent="1">
          <mxGeometry x="430" y="460" width="30" height="20" as="geometry" />
        </mxCell>
        <mxCell id="EDOhC-vxZ0K7PfXzQvtV-29" value="" style="edgeStyle=orthogonalEdgeStyle;rounded=0;orthogonalLoop=1;jettySize=auto;html=1;" edge="1" parent="1" source="EDOhC-vxZ0K7PfXzQvtV-15" target="EDOhC-vxZ0K7PfXzQvtV-16">
          <mxGeometry relative="1" as="geometry" />
        </mxCell>
        <mxCell id="EDOhC-vxZ0K7PfXzQvtV-15" value="MVCC" style="ellipse;whiteSpace=wrap;html=1;" vertex="1" parent="1">
          <mxGeometry x="481.5" y="400" width="60" height="40" as="geometry" />
        </mxCell>
        <mxCell id="EDOhC-vxZ0K7PfXzQvtV-16" value="隔离型" style="ellipse;whiteSpace=wrap;html=1;" vertex="1" parent="1">
          <mxGeometry x="570" y="450" width="60" height="40" as="geometry" />
        </mxCell>
        <mxCell id="EDOhC-vxZ0K7PfXzQvtV-20" value="" style="endArrow=none;html=1;" edge="1" parent="1">
          <mxGeometry width="50" height="50" relative="1" as="geometry">
            <mxPoint x="410" y="420" as="sourcePoint" />
            <mxPoint x="410" y="350" as="targetPoint" />
          </mxGeometry>
        </mxCell>
        <mxCell id="EDOhC-vxZ0K7PfXzQvtV-21" value="" style="endArrow=classic;html=1;" edge="1" parent="1">
          <mxGeometry width="50" height="50" relative="1" as="geometry">
            <mxPoint x="410" y="350" as="sourcePoint" />
            <mxPoint x="480" y="350" as="targetPoint" />
          </mxGeometry>
        </mxCell>
        <mxCell id="EDOhC-vxZ0K7PfXzQvtV-22" value="" style="endArrow=classic;html=1;" edge="1" parent="1">
          <mxGeometry width="50" height="50" relative="1" as="geometry">
            <mxPoint x="410" y="419" as="sourcePoint" />
            <mxPoint x="480" y="419" as="targetPoint" />
            <Array as="points">
              <mxPoint x="426" y="419" />
            </Array>
          </mxGeometry>
        </mxCell>
        <mxCell id="EDOhC-vxZ0K7PfXzQvtV-24" value="" style="endArrow=classic;html=1;entryX=0;entryY=0.5;entryDx=0;entryDy=0;" edge="1" parent="1" target="EDOhC-vxZ0K7PfXzQvtV-10">
          <mxGeometry width="50" height="50" relative="1" as="geometry">
            <mxPoint x="329" y="290" as="sourcePoint" />
            <mxPoint x="470" y="290" as="targetPoint" />
            <Array as="points">
              <mxPoint x="350" y="290" />
              <mxPoint x="420" y="290" />
            </Array>
          </mxGeometry>
        </mxCell>
        <mxCell id="EDOhC-vxZ0K7PfXzQvtV-28" value="" style="endArrow=classic;html=1;" edge="1" parent="1">
          <mxGeometry width="50" height="50" relative="1" as="geometry">
            <mxPoint x="330" y="480" as="sourcePoint" />
            <mxPoint x="570" y="480" as="targetPoint" />
          </mxGeometry>
        </mxCell>
        <mxCell id="EDOhC-vxZ0K7PfXzQvtV-32" value="" style="endArrow=none;dashed=1;html=1;" edge="1" parent="1">
          <mxGeometry width="50" height="50" relative="1" as="geometry">
            <mxPoint x="310" y="250" as="sourcePoint" />
            <mxPoint x="670" y="250" as="targetPoint" />
          </mxGeometry>
        </mxCell>
        <mxCell id="EDOhC-vxZ0K7PfXzQvtV-34" value="" style="endArrow=none;dashed=1;html=1;" edge="1" parent="1">
          <mxGeometry width="50" height="50" relative="1" as="geometry">
            <mxPoint x="310" y="250" as="sourcePoint" />
            <mxPoint x="310" y="520" as="targetPoint" />
          </mxGeometry>
        </mxCell>
        <mxCell id="EDOhC-vxZ0K7PfXzQvtV-35" value="" style="endArrow=none;dashed=1;html=1;" edge="1" parent="1">
          <mxGeometry width="50" height="50" relative="1" as="geometry">
            <mxPoint x="670" y="250" as="sourcePoint" />
            <mxPoint x="670" y="520" as="targetPoint" />
          </mxGeometry>
        </mxCell>
        <mxCell id="EDOhC-vxZ0K7PfXzQvtV-38" value="" style="endArrow=none;dashed=1;html=1;" edge="1" parent="1">
          <mxGeometry width="50" height="50" relative="1" as="geometry">
            <mxPoint x="310" y="520" as="sourcePoint" />
            <mxPoint x="670" y="520" as="targetPoint" />
          </mxGeometry>
        </mxCell>
        <mxCell id="EDOhC-vxZ0K7PfXzQvtV-39" value="" style="shape=flexArrow;endArrow=classic;html=1;" edge="1" parent="1">
          <mxGeometry width="50" height="50" relative="1" as="geometry">
            <mxPoint x="670" y="395" as="sourcePoint" />
            <mxPoint x="720" y="395" as="targetPoint" />
          </mxGeometry>
        </mxCell>
        <mxCell id="EDOhC-vxZ0K7PfXzQvtV-40" value="一致性" style="ellipse;whiteSpace=wrap;html=1;" vertex="1" parent="1">
          <mxGeometry x="720" y="370" width="86" height="50" as="geometry" />
        </mxCell>
      </root>
    </mxGraphModel>
  </diagram>
</mxfile>
